<svg xmlns="http://www.w3.org/2000/svg" viewBox="0 0 64 64" role="img" aria-labelledby="title">
  <title id="title">HeartWrite AI favicon</title>
  <path d="M32 54C19 43 10 35 10 24c0-7 5-12 12-12 5 0 8 2 10 6 2-4 5-6 10-6 7 0 12 5 12 12 0 11-9 19-22 30Z" fill="none" stroke="#861d33" stroke-width="4" stroke-linecap="round" stroke-linejoin="round"/>
  <path d="M42 14c-10 5-17 13-18 25 0 5 1 10 4 14 10-5 17-14 18-25 1-5-1-10-4-14Z" fill="#f48fa3"/>
  <path d="M28 53c5-12 10-22 18-33" fill="none" stroke="#861d33" stroke-width="3" stroke-linecap="round"/>
</svg>
